%TF.GenerationSoftware,KiCad,Pcbnew,(6.0.8)*%
%TF.CreationDate,2023-02-21T13:23:49+01:00*%
%TF.ProjectId,attiny85,61747469-6e79-4383-952e-6b696361645f,rev?*%
%TF.SameCoordinates,Original*%
%TF.FileFunction,Soldermask,Bot*%
%TF.FilePolarity,Negative*%
%FSLAX46Y46*%
G04 Gerber Fmt 4.6, Leading zero omitted, Abs format (unit mm)*
G04 Created by KiCad (PCBNEW (6.0.8)) date 2023-02-21 13:23:49*
%MOMM*%
%LPD*%
G01*
G04 APERTURE LIST*
%ADD10R,1.508000X1.508000*%
%ADD11C,1.508000*%
%ADD12C,1.250000*%
%ADD13O,3.150000X1.575000*%
%ADD14R,1.700000X1.700000*%
%ADD15O,1.700000X1.700000*%
%ADD16C,1.600000*%
%ADD17O,1.600000X1.600000*%
%ADD18R,1.600000X1.600000*%
%ADD19R,1.500000X1.500000*%
%ADD20O,1.500000X1.500000*%
G04 APERTURE END LIST*
D10*
%TO.C,J1*%
X169737500Y-87555750D03*
D11*
X169737500Y-85055750D03*
X169737500Y-83055750D03*
X169737500Y-80555750D03*
D12*
X167637500Y-86305750D03*
X167637500Y-81805750D03*
D13*
X167637500Y-78355750D03*
X167637500Y-89755750D03*
%TD*%
D14*
%TO.C,J2*%
X207090000Y-79100000D03*
D15*
X204550000Y-79100000D03*
X207090000Y-81640000D03*
X204550000Y-81640000D03*
X207090000Y-84180000D03*
X204550000Y-84180000D03*
X207090000Y-86720000D03*
X204550000Y-86720000D03*
X207090000Y-89260000D03*
X204550000Y-89260000D03*
%TD*%
D16*
%TO.C,R4*%
X182290000Y-78800000D03*
D17*
X189910000Y-78800000D03*
%TD*%
D16*
%TO.C,R5*%
X182290000Y-81820000D03*
D17*
X189910000Y-81820000D03*
%TD*%
D16*
%TO.C,R1*%
X172200000Y-78800000D03*
D17*
X179820000Y-78800000D03*
%TD*%
D18*
%TO.C,U1*%
X192900000Y-81650000D03*
D17*
X192900000Y-84190000D03*
X192900000Y-86730000D03*
X192900000Y-89270000D03*
X200520000Y-89270000D03*
X200520000Y-86730000D03*
X200520000Y-84190000D03*
X200520000Y-81650000D03*
%TD*%
D19*
%TO.C,D1*%
X172200000Y-89650000D03*
D20*
X179820000Y-89650000D03*
%TD*%
D16*
%TO.C,R3*%
X179810000Y-81800000D03*
D17*
X172190000Y-81800000D03*
%TD*%
D16*
%TO.C,R2*%
X179810000Y-84900000D03*
D17*
X172190000Y-84900000D03*
%TD*%
D19*
%TO.C,D2*%
X172200000Y-87500000D03*
D20*
X179820000Y-87500000D03*
%TD*%
M02*
