%TF.GenerationSoftware,KiCad,Pcbnew,(6.0.8)*%
%TF.CreationDate,2023-02-21T13:23:49+01:00*%
%TF.ProjectId,attiny85,61747469-6e79-4383-952e-6b696361645f,rev?*%
%TF.SameCoordinates,Original*%
%TF.FileFunction,Copper,L1,Top*%
%TF.FilePolarity,Positive*%
%FSLAX46Y46*%
G04 Gerber Fmt 4.6, Leading zero omitted, Abs format (unit mm)*
G04 Created by KiCad (PCBNEW (6.0.8)) date 2023-02-21 13:23:49*
%MOMM*%
%LPD*%
G01*
G04 APERTURE LIST*
G04 Aperture macros list*
%AMRoundRect*
0 Rectangle with rounded corners*
0 $1 Rounding radius*
0 $2 $3 $4 $5 $6 $7 $8 $9 X,Y pos of 4 corners*
0 Add a 4 corners polygon primitive as box body*
4,1,4,$2,$3,$4,$5,$6,$7,$8,$9,$2,$3,0*
0 Add four circle primitives for the rounded corners*
1,1,$1+$1,$2,$3*
1,1,$1+$1,$4,$5*
1,1,$1+$1,$6,$7*
1,1,$1+$1,$8,$9*
0 Add four rect primitives between the rounded corners*
20,1,$1+$1,$2,$3,$4,$5,0*
20,1,$1+$1,$4,$5,$6,$7,0*
20,1,$1+$1,$6,$7,$8,$9,0*
20,1,$1+$1,$8,$9,$2,$3,0*%
G04 Aperture macros list end*
%TA.AperFunction,ComponentPad*%
%ADD10R,1.508000X1.508000*%
%TD*%
%TA.AperFunction,ComponentPad*%
%ADD11C,1.508000*%
%TD*%
%TA.AperFunction,ComponentPad*%
%ADD12O,3.150000X1.575000*%
%TD*%
%TA.AperFunction,ComponentPad*%
%ADD13R,1.700000X1.700000*%
%TD*%
%TA.AperFunction,ComponentPad*%
%ADD14O,1.700000X1.700000*%
%TD*%
%TA.AperFunction,ComponentPad*%
%ADD15C,1.600000*%
%TD*%
%TA.AperFunction,ComponentPad*%
%ADD16O,1.600000X1.600000*%
%TD*%
%TA.AperFunction,SMDPad,CuDef*%
%ADD17RoundRect,0.250001X0.462499X0.624999X-0.462499X0.624999X-0.462499X-0.624999X0.462499X-0.624999X0*%
%TD*%
%TA.AperFunction,ComponentPad*%
%ADD18R,1.600000X1.600000*%
%TD*%
%TA.AperFunction,ComponentPad*%
%ADD19R,1.500000X1.500000*%
%TD*%
%TA.AperFunction,ComponentPad*%
%ADD20O,1.500000X1.500000*%
%TD*%
%TA.AperFunction,SMDPad,CuDef*%
%ADD21R,2.000000X1.500000*%
%TD*%
%TA.AperFunction,SMDPad,CuDef*%
%ADD22R,2.000000X3.800000*%
%TD*%
%TA.AperFunction,Conductor*%
%ADD23C,0.250000*%
%TD*%
G04 APERTURE END LIST*
D10*
%TO.P,J1,1,VBUS*%
%TO.N,/5V*%
X169737500Y-87555750D03*
D11*
%TO.P,J1,2,D-*%
%TO.N,Net-(D1-Pad1)*%
X169737500Y-85055750D03*
%TO.P,J1,3,D+*%
%TO.N,Net-(D2-Pad1)*%
X169737500Y-83055750D03*
%TO.P,J1,4,GND*%
%TO.N,/GND*%
X169737500Y-80555750D03*
D12*
%TO.P,J1,S2*%
%TO.N,N/C*%
X167637500Y-78355750D03*
%TO.P,J1,S1*%
X167637500Y-89755750D03*
%TD*%
D13*
%TO.P,J2,1,Pin_1*%
%TO.N,/GND*%
X207090000Y-79100000D03*
D14*
%TO.P,J2,2,Pin_2*%
%TO.N,/5V*%
X204550000Y-79100000D03*
%TO.P,J2,3,Pin_3*%
%TO.N,/GND*%
X207090000Y-81640000D03*
%TO.P,J2,4,Pin_4*%
%TO.N,/3V3*%
X204550000Y-81640000D03*
%TO.P,J2,5,Pin_5*%
%TO.N,/PB0*%
X207090000Y-84180000D03*
%TO.P,J2,6,Pin_6*%
%TO.N,/PB3*%
X204550000Y-84180000D03*
%TO.P,J2,7,Pin_7*%
%TO.N,/PB1*%
X207090000Y-86720000D03*
%TO.P,J2,8,Pin_8*%
%TO.N,/PB4*%
X204550000Y-86720000D03*
%TO.P,J2,9,Pin_9*%
%TO.N,/PB2*%
X207090000Y-89260000D03*
%TO.P,J2,10,Pin_10*%
%TO.N,/PB5*%
X204550000Y-89260000D03*
%TD*%
D15*
%TO.P,R4,1*%
%TO.N,/5V*%
X182290000Y-78800000D03*
D16*
%TO.P,R4,2*%
%TO.N,Net-(D3-Pad2)*%
X189910000Y-78800000D03*
%TD*%
D17*
%TO.P,D4,1,K*%
%TO.N,/GND*%
X195287500Y-78400000D03*
%TO.P,D4,2,A*%
%TO.N,Net-(D4-Pad2)*%
X192312500Y-78400000D03*
%TD*%
D15*
%TO.P,R5,1*%
%TO.N,/PB1*%
X182290000Y-81820000D03*
D16*
%TO.P,R5,2*%
%TO.N,Net-(D4-Pad2)*%
X189910000Y-81820000D03*
%TD*%
D15*
%TO.P,R1,1*%
%TO.N,Net-(D1-Pad1)*%
X172200000Y-78800000D03*
D16*
%TO.P,R1,2*%
%TO.N,/5V*%
X179820000Y-78800000D03*
%TD*%
D18*
%TO.P,U1,1,~{RESET}/PB5*%
%TO.N,/PB5*%
X192900000Y-81650000D03*
D16*
%TO.P,U1,2,XTAL1/PB3*%
%TO.N,/PB3*%
X192900000Y-84190000D03*
%TO.P,U1,3,XTAL2/PB4*%
%TO.N,/PB4*%
X192900000Y-86730000D03*
%TO.P,U1,4,GND*%
%TO.N,/GND*%
X192900000Y-89270000D03*
%TO.P,U1,5,AREF/PB0*%
%TO.N,/PB0*%
X200520000Y-89270000D03*
%TO.P,U1,6,PB1*%
%TO.N,/PB1*%
X200520000Y-86730000D03*
%TO.P,U1,7,PB2*%
%TO.N,/PB2*%
X200520000Y-84190000D03*
%TO.P,U1,8,VCC*%
%TO.N,/5V*%
X200520000Y-81650000D03*
%TD*%
D17*
%TO.P,D3,1,K*%
%TO.N,/GND*%
X200987500Y-78400000D03*
%TO.P,D3,2,A*%
%TO.N,Net-(D3-Pad2)*%
X198012500Y-78400000D03*
%TD*%
D19*
%TO.P,D1,1,K*%
%TO.N,Net-(D1-Pad1)*%
X172200000Y-89650000D03*
D20*
%TO.P,D1,2,A*%
%TO.N,/GND*%
X179820000Y-89650000D03*
%TD*%
D21*
%TO.P,U2,1,GND*%
%TO.N,/GND*%
X189100000Y-89550000D03*
D22*
%TO.P,U2,2,VO*%
%TO.N,/3V3*%
X182800000Y-87250000D03*
D21*
X189100000Y-87250000D03*
%TO.P,U2,3,VI*%
%TO.N,/5V*%
X189100000Y-84950000D03*
%TD*%
D15*
%TO.P,R3,1*%
%TO.N,/PB3*%
X179810000Y-81800000D03*
D16*
%TO.P,R3,2*%
%TO.N,Net-(D1-Pad1)*%
X172190000Y-81800000D03*
%TD*%
D15*
%TO.P,R2,1*%
%TO.N,/PB4*%
X179810000Y-84900000D03*
D16*
%TO.P,R2,2*%
%TO.N,Net-(D2-Pad1)*%
X172190000Y-84900000D03*
%TD*%
D19*
%TO.P,D2,1,K*%
%TO.N,Net-(D2-Pad1)*%
X172200000Y-87500000D03*
D20*
%TO.P,D2,2,A*%
%TO.N,/GND*%
X179820000Y-87500000D03*
%TD*%
D23*
%TO.N,/5V*%
X182290000Y-78800000D02*
X179820000Y-78800000D01*
%TO.N,/GND*%
X177700000Y-85380000D02*
X179820000Y-87500000D01*
X177700000Y-76900000D02*
X177700000Y-85380000D01*
X177700000Y-76900000D02*
X171100000Y-76900000D01*
X194900000Y-76900000D02*
X177700000Y-76900000D01*
%TO.N,Net-(D2-Pad1)*%
X172190000Y-84900000D02*
X170345750Y-83055750D01*
X170345750Y-83055750D02*
X169737500Y-83055750D01*
%TO.N,/GND*%
X171100000Y-76900000D02*
X169737500Y-78262500D01*
X194950000Y-76850000D02*
X194900000Y-76900000D01*
X169737500Y-78262500D02*
X169737500Y-80555750D01*
%TO.N,Net-(D2-Pad1)*%
X172190000Y-87490000D02*
X172200000Y-87500000D01*
X172190000Y-84900000D02*
X172190000Y-87490000D01*
%TO.N,/PB0*%
X201685000Y-90435000D02*
X207615000Y-90435000D01*
X208300000Y-85390000D02*
X207090000Y-84180000D01*
X207615000Y-90435000D02*
X208300000Y-89750000D01*
X200520000Y-89270000D02*
X201685000Y-90435000D01*
X208300000Y-89750000D02*
X208300000Y-85390000D01*
%TO.N,/PB1*%
X192254009Y-88325000D02*
X192679009Y-87900000D01*
X199350000Y-87900000D02*
X200520000Y-86730000D01*
X181250000Y-89950000D02*
X186300000Y-89950000D01*
X181250000Y-82860000D02*
X181250000Y-89950000D01*
X182290000Y-81820000D02*
X181250000Y-82860000D01*
X187925000Y-88325000D02*
X192254009Y-88325000D01*
X186300000Y-89950000D02*
X187925000Y-88325000D01*
X192679009Y-87900000D02*
X199350000Y-87900000D01*
%TO.N,/PB2*%
X205830000Y-88000000D02*
X204168299Y-88000000D01*
X207090000Y-89260000D02*
X205830000Y-88000000D01*
X200520000Y-84351701D02*
X200520000Y-84190000D01*
X204168299Y-88000000D02*
X200520000Y-84351701D01*
%TO.N,/GND*%
X207090000Y-79100000D02*
X207090000Y-81640000D01*
X187800000Y-90850000D02*
X189100000Y-89550000D01*
X201462500Y-77925000D02*
X200987500Y-78400000D01*
X200987500Y-78400000D02*
X199787500Y-77200000D01*
X192900000Y-89270000D02*
X189380000Y-89270000D01*
X199787500Y-77200000D02*
X196487500Y-77200000D01*
X179820000Y-89650000D02*
X181020000Y-90850000D01*
X181020000Y-90850000D02*
X187800000Y-90850000D01*
X194950000Y-76850000D02*
X195287500Y-77187500D01*
X195287500Y-77187500D02*
X195287500Y-78400000D01*
X179820000Y-87500000D02*
X179820000Y-89650000D01*
X189380000Y-89270000D02*
X189100000Y-89550000D01*
X207090000Y-79100000D02*
X205915000Y-77925000D01*
X205915000Y-77925000D02*
X201462500Y-77925000D01*
X196487500Y-77200000D02*
X195287500Y-78400000D01*
%TO.N,/5V*%
X196050000Y-81650000D02*
X194650000Y-83050000D01*
X189100000Y-84950000D02*
X191000000Y-83050000D01*
X182290000Y-78800000D02*
X188440000Y-84950000D01*
X191000000Y-83050000D02*
X194650000Y-83050000D01*
X204550000Y-79100000D02*
X202000000Y-81650000D01*
X200520000Y-81650000D02*
X196050000Y-81650000D01*
X202000000Y-81650000D02*
X200520000Y-81650000D01*
X188440000Y-84950000D02*
X189100000Y-84950000D01*
%TO.N,Net-(D3-Pad2)*%
X196662500Y-79750000D02*
X198012500Y-78400000D01*
X190860000Y-79750000D02*
X196662500Y-79750000D01*
X189910000Y-78800000D02*
X190860000Y-79750000D01*
%TO.N,Net-(D4-Pad2)*%
X189910000Y-81820000D02*
X188785000Y-80695000D01*
X188785000Y-78315000D02*
X189425000Y-77675000D01*
X189425000Y-77675000D02*
X191587500Y-77675000D01*
X188785000Y-80695000D02*
X188785000Y-78315000D01*
X191587500Y-77675000D02*
X192312500Y-78400000D01*
%TO.N,/3V3*%
X203290000Y-82900000D02*
X195780991Y-82900000D01*
X182800000Y-87250000D02*
X189100000Y-87250000D01*
X190745000Y-85605000D02*
X189100000Y-87250000D01*
X193075991Y-85605000D02*
X190745000Y-85605000D01*
X195780991Y-82900000D02*
X193075991Y-85605000D01*
X204550000Y-81640000D02*
X203290000Y-82900000D01*
%TD*%
M02*
