M48
; DRILL file {KiCad (6.0.8)} date Tue Feb 21 13:24:42 2023
; FORMAT={-:-/ absolute / metric / decimal}
; #@! TF.CreationDate,2023-02-21T13:24:42+01:00
; #@! TF.GenerationSoftware,Kicad,Pcbnew,(6.0.8)
; #@! TF.FileFunction,Plated,1,2,PTH
FMAT,2
METRIC
; #@! TA.AperFunction,Plated,PTH,ComponentDrill
T1C0.750
; #@! TA.AperFunction,Plated,PTH,ComponentDrill
T2C0.800
; #@! TA.AperFunction,Plated,PTH,ComponentDrill
T3C1.000
; #@! TA.AperFunction,Plated,PTH,ComponentDrill
T4C1.050
%
G90
G05
T1
X172.2Y-87.5
X172.2Y-89.65
X179.82Y-87.5
X179.82Y-89.65
T2
X172.19Y-81.8
X172.19Y-84.9
X172.2Y-78.8
X179.81Y-81.8
X179.81Y-84.9
X179.82Y-78.8
X182.29Y-78.8
X182.29Y-81.82
X189.91Y-78.8
X189.91Y-81.82
X192.9Y-81.65
X192.9Y-84.19
X192.9Y-86.73
X192.9Y-89.27
X200.52Y-81.65
X200.52Y-84.19
X200.52Y-86.73
X200.52Y-89.27
T3
X169.737Y-80.556
X169.737Y-83.056
X169.737Y-85.056
X169.737Y-87.556
X204.55Y-79.1
X204.55Y-81.64
X204.55Y-84.18
X204.55Y-86.72
X204.55Y-89.26
X207.09Y-79.1
X207.09Y-81.64
X207.09Y-84.18
X207.09Y-86.72
X207.09Y-89.26
T4
G00X168.412Y-78.356
M15
G01X166.862Y-78.356
M16
G05
G00X168.412Y-89.756
M15
G01X166.862Y-89.756
M16
G05
T0
M30
